<svg width="60" height="50" xmlns="http://www.w3.org/2000/svg">

 <g>
  <title>background</title>
  <rect fill="none" id="canvas_background" height="602" width="802" y="-1" x="-1"/>
 </g>
 <g>
  <title>Layer 1</title>
  <g stroke="null" id="svg_1">
   <path stroke="null" id="svg_2" d="m39.04725,13.71959l-0.97575,0l0,-2.40354c-0.639,0.23764 -1.665,1.02373 -2.166,1.17838c-0.86025,0.25046 -1.0155,0.8208 -1.0155,0.8208s0.53025,-0.27611 1.3245,-0.69104c0.624,-0.33722 1.43175,-0.76346 2.175,-1.28777c1.047,-0.94452 1.63575,-1.98334 1.63575,-3.07647c0,-4.2956 -8.95875,-7.77794 -20.013,-7.77794c-11.052,0.00151 -20.01225,3.48385 -20.01225,7.77945c0,1.17009 0.68475,2.27605 1.875,3.27186l0,7.73645c0,10.05248 8.10375,18.20385 18.099,18.20385c7.7415,0 14.32875,-4.89988 16.9155,-11.77554l2.15775,0c3.2865,0 5.95275,-2.68192 5.95275,-5.98849s-2.66625,-5.98999 -5.95275,-5.98999zm0.23025,8.27887l-1.431,0c0.13425,-0.89397 0.22575,-1.80002 0.22575,-2.72869l0,-1.84981l1.20525,0c1.257,0 2.27625,1.02524 2.27625,2.28887c0,1.26514 -1.01925,2.28963 -2.27625,2.28963z" fill="#FAF1D9"/>
   <ellipse stroke="null" id="svg_3" ry="3.57891" rx="13.78125" cy="7.35616" cx="20.013" fill="#7E6447"/>
  </g>
 </g>
</svg>